<?xml version="1.0" standalone="no"?>
<!-- Generator: Gravit.io -->
<svg xmlns="http://www.w3.org/2000/svg" xmlns:xlink="http://www.w3.org/1999/xlink" style="isolation:isolate" viewBox="0 0 500 500" width="500" height="500">
	<defs>
		<clipPath id="_clipPath_VuNucpW7cQwLtTTU5grk9Tkq80f6x7FU">
			<rect width="500" height="500" />
		</clipPath>
	</defs>
	<g clip-path="url(#_clipPath_VuNucpW7cQwLtTTU5grk9Tkq80f6x7FU)">
		<rect x="53" y="98" width="401" height="323" transform="matrix(1,0,0,1,0,0)" fill="rgb(255,255,255)" />
		<linearGradient id="_lgradient_7" x1="92.83340056514918%" y1="93.48144566964737%" x2="4.566034411302978%" y2="3.8780185622426133%">
			<stop offset="0%" stop-opacity="1" style="stop-color:#FFC848" />
			<stop offset="99.99999999999999%" stop-opacity="1" style="stop-color:#1EC4B4" />
		</linearGradient>
		<path d=" M 67.559 10 C 35.904 10 10 35.898 10 67.546 L 10 432.448 C 10 464.102 35.904 490 67.559 490 L 432.454 490 C 464.102 490 490.006 464.102 490.006 432.448 L 490.006 67.546 C 490.006 35.898 464.102 10 432.454 10 L 67.559 10 M 141.765 145.628 C 138.877 145.628 136.279 146.785 134.422 148.642 L 134.368 148.696 C 132.505 150.559 131.348 153.157 131.348 156.045 L 131.348 226.172 C 131.348 235.221 128.086 243.546 122.685 250.008 C 128.086 256.477 131.348 264.796 131.348 273.844 L 131.348 343.972 C 131.348 346.859 132.505 349.464 134.368 351.32 L 134.422 351.375 C 136.279 353.231 138.877 354.389 141.765 354.389 L 141.765 381.227 C 131.565 381.227 122.269 377.043 115.499 370.298 L 115.445 370.243 C 108.699 363.474 104.509 354.172 104.509 343.972 L 104.509 273.844 C 104.509 270.993 103.334 268.389 101.447 266.496 C 99.554 264.603 96.95 263.427 94.099 263.427 L 94.099 236.589 C 96.98 236.589 99.584 235.432 101.447 233.569 L 101.447 233.521 C 103.334 231.628 104.509 229.024 104.509 226.172 L 104.509 156.045 C 104.509 145.845 108.699 136.549 115.445 129.779 L 115.499 129.725 C 122.269 122.979 131.565 118.79 141.765 118.79 L 141.765 145.628 M 67.559 10 M 358.952 118.792 C 369.152 118.792 378.454 122.982 385.218 129.721 L 385.272 129.776 C 392.018 136.545 396.207 145.847 396.207 156.041 L 396.207 226.175 C 396.207 229.026 397.383 231.63 399.27 233.517 L 399.27 233.571 C 401.138 235.434 403.737 236.592 406.618 236.592 L 406.618 263.43 C 403.773 263.43 401.163 264.605 399.27 266.492 C 397.383 268.391 396.207 270.995 396.207 273.841 L 396.207 343.974 C 396.207 354.168 392.018 363.47 385.272 370.24 L 385.218 370.294 C 378.454 377.04 369.152 381.229 358.952 381.229 L 358.952 354.391 C 361.84 354.391 364.438 353.234 366.301 351.377 L 366.349 351.323 C 368.212 349.46 369.369 346.862 369.369 343.974 L 369.369 273.841 C 369.369 264.792 372.63 256.473 378.032 250.011 C 372.63 243.542 369.369 235.223 369.369 226.175 L 369.369 156.041 C 369.369 153.159 368.212 150.561 366.349 148.699 L 366.301 148.644 C 364.438 146.788 361.84 145.63 358.952 145.63 L 358.952 118.792 M 67.559 10 Z  M 146.594 168.764 L 249.432 247.259 L 352.625 168.499 L 352.625 202.197 L 249.432 280.963 L 146.594 202.462 L 146.594 168.764 Z " fill="url(#_lgradient_7)" />
	</g>
</svg>
