<?xml version="1.0" standalone="no"?><!-- Generator: Gravit.io --><svg xmlns="http://www.w3.org/2000/svg" xmlns:xlink="http://www.w3.org/1999/xlink" style="isolation:isolate" viewBox="0 0 582.3 250" width="582.3" height="250"><defs><clipPath id="_clipPath_laGZHBsduNwilOc2jurFPnjxop1V08de"><rect width="582.3" height="250"/></clipPath></defs><g clip-path="url(#_clipPath_laGZHBsduNwilOc2jurFPnjxop1V08de)"><path d="M 24.316 0 L 557.984 0 C 571.404 0 582.3 10.896 582.3 24.316 L 582.3 225.684 C 582.3 239.104 571.404 250 557.984 250 L 24.316 250 C 10.896 250 0 239.104 0 225.684 L 0 24.316 C 0 10.896 10.896 0 24.316 0 Z" style="stroke:none;fill:#FFFFFF;stroke-miterlimit:10;"/><g id="Text"><path d=" M 281.184 175.368 L 296.539 175.368 L 296.539 111.914 L 324.332 153.54 L 324.839 153.54 L 352.886 111.661 L 352.886 175.368 L 368.497 175.368 L 368.497 86.532 L 351.871 86.532 L 324.839 128.537 L 297.809 86.532 L 281.184 86.532 L 281.184 175.368 Z " fill-rule="evenodd" fill="rgb(115,116,118)"/><path d=" M 398.179 175.367 L 413.534 175.367 L 413.534 108.359 L 398.179 108.359 L 398.179 175.367 Z  M 397.543 98.081 L 414.041 98.081 L 414.041 83.487 L 397.543 83.487 L 397.543 98.081 Z " fill-rule="evenodd" fill="rgb(115,116,118)"/><path d=" M 463.776 176.508 C 469.613 176.508 473.8 175.24 477.608 173.082 L 477.608 160.518 C 474.564 162.04 471.517 162.804 468.091 162.804 C 462.886 162.804 459.842 160.392 459.842 154.427 L 459.842 121.56 L 477.862 121.56 L 477.862 108.36 L 459.842 108.36 L 459.842 89.959 L 444.485 89.959 L 444.485 108.36 L 435.985 108.36 L 435.985 121.56 L 444.485 121.56 L 444.485 156.838 C 444.485 171.557 452.482 176.508 463.776 176.508 Z " fill-rule="evenodd" fill="rgb(115,116,118)"/><path d=" M 524.804 165.595 C 517.445 165.595 511.735 161.913 511.735 155.442 L 511.735 155.186 C 511.735 148.208 517.57 144.021 527.472 144.021 C 533.561 144.021 538.765 145.162 542.698 146.686 L 542.698 151.255 C 542.698 159.758 534.957 165.595 524.804 165.595 Z  M 520.489 176.763 C 530.77 176.763 537.748 172.45 542.319 166.992 L 542.319 175.369 L 557.295 175.369 L 557.295 135.644 C 557.295 126.888 555.009 119.782 550.061 114.96 C 545.366 110.137 537.876 107.472 527.851 107.472 C 517.191 107.472 509.957 109.63 502.597 112.93 L 506.657 124.984 C 512.748 122.447 518.334 120.797 525.819 120.797 C 536.607 120.797 542.445 125.873 542.445 135.393 L 542.445 137.041 C 537.24 135.393 531.913 134.25 524.425 134.25 C 508.053 134.25 496.76 141.356 496.76 155.822 L 496.76 156.078 C 496.76 169.529 507.925 176.763 520.489 176.763 Z " fill-rule="evenodd" fill="rgb(115,116,118)"/></g><linearGradient id="_lgradient_9" x1="92.83340056514918%" y1="93.48144566964737%" x2="4.566034411302978%" y2="3.8780185622426133%"><stop offset="0%" stop-opacity="1" style="stop-color:rgb(201,40,127)"/><stop offset="10%" stop-opacity="1" style="stop-color:rgb(190,43,131)"/><stop offset="20%" stop-opacity="1" style="stop-color:rgb(178,46,134)"/><stop offset="30.000000000000004%" stop-opacity="1" style="stop-color:rgb(166,48,138)"/><stop offset="40%" stop-opacity="1" style="stop-color:rgb(153,51,141)"/><stop offset="50%" stop-opacity="1" style="stop-color:rgb(140,53,144)"/><stop offset="60%" stop-opacity="1" style="stop-color:rgb(127,56,148)"/><stop offset="70%" stop-opacity="1" style="stop-color:rgb(113,58,151)"/><stop offset="80%" stop-opacity="1" style="stop-color:rgb(99,60,155)"/><stop offset="89.99999999999999%" stop-opacity="1" style="stop-color:rgb(84,63,158)"/><stop offset="99.99999999999999%" stop-opacity="1" style="stop-color:rgb(69,65,162)"/></linearGradient><path d=" M 48.983 25 C 35.793 25 25 35.791 25 48.978 L 25 201.02 C 25 214.209 35.793 225 48.983 225 L 201.022 225 C 214.209 225 225.002 214.209 225.002 201.02 L 225.002 48.978 C 225.002 35.791 214.209 25 201.022 25 L 48.983 25 M 79.902 81.512 C 78.699 81.512 77.616 81.994 76.843 82.767 L 76.82 82.79 C 76.044 83.566 75.562 84.649 75.562 85.852 L 75.562 115.072 C 75.562 118.842 74.203 122.311 71.952 125.003 C 74.203 127.699 75.562 131.165 75.562 134.935 L 75.562 164.155 C 75.562 165.358 76.044 166.443 76.82 167.217 L 76.843 167.239 C 77.616 168.013 78.699 168.495 79.902 168.495 L 79.902 179.678 C 75.652 179.678 71.779 177.935 68.958 175.124 L 68.935 175.101 C 66.125 172.281 64.379 168.405 64.379 164.155 L 64.379 134.935 C 64.379 133.747 63.889 132.662 63.103 131.873 C 62.314 131.085 61.229 130.595 60.041 130.595 L 60.041 119.412 C 61.242 119.412 62.327 118.93 63.103 118.154 L 63.103 118.134 C 63.889 117.345 64.379 116.26 64.379 115.072 L 64.379 85.852 C 64.379 81.602 66.125 77.729 68.935 74.908 L 68.958 74.885 C 71.779 72.075 75.652 70.329 79.902 70.329 L 79.902 81.512 M 48.983 25 M 170.397 70.33 C 174.647 70.33 178.522 72.076 181.341 74.884 L 181.363 74.906 C 184.174 77.727 185.92 81.603 185.92 85.85 L 185.92 115.073 C 185.92 116.261 186.41 117.346 187.196 118.132 L 187.196 118.155 C 187.974 118.931 189.057 119.413 190.258 119.413 L 190.258 130.596 C 189.072 130.596 187.984 131.086 187.196 131.872 C 186.41 132.663 185.92 133.748 185.92 134.934 L 185.92 164.156 C 185.92 168.403 184.174 172.279 181.363 175.1 L 181.341 175.123 C 178.522 177.933 174.647 179.679 170.397 179.679 L 170.397 168.496 C 171.6 168.496 172.683 168.014 173.459 167.24 L 173.479 167.218 C 174.255 166.442 174.737 165.359 174.737 164.156 L 174.737 134.934 C 174.737 131.163 176.096 127.697 178.347 125.004 C 176.096 122.309 174.737 118.843 174.737 115.073 L 174.737 85.85 C 174.737 84.65 174.255 83.567 173.479 82.791 L 173.459 82.768 C 172.683 81.995 171.6 81.513 170.397 81.513 L 170.397 70.33 M 48.983 25 Z  M 81.914 91.152 L 124.763 123.858 L 167.76 91.041 L 167.76 105.082 L 124.763 137.901 L 81.914 105.193 L 81.914 91.152 Z " fill="url(#_lgradient_9)"/></g></svg>